# xmcd
#
# Track frame offsets: 
#        150
#        18085
#        34275
#        48970
#        64347
#        78045
#        93332
#        110520
#        124552
#        139322
#
# Disc length: 2159 seconds
#
# Revision: 2
# Processed by: cddbd v1.5PL3 Copyright (c) Steve Scherf et al.
# Submitted via: ExactAudioCopy v0.90b4
#
DISCID=7b086d0a
DTITLE=The Charlie Daniels Band - Renegade
DYEAR=1900
DGENRE=Country
TTITLE0=Renegade
TTITLE1=Talk To Me Fiddle
TTITLE2=Little Folks
TTITLE3=Honky Tonk Life
TTITLE4=Layla
TTITLE5=The Twang Factor
TTITLE6=Fathers And Sons
TTITLE7=What My Baby Sees In Me
TTITLE8=Willie Jones
TTITLE9=Let Freedom Ring
EXTD=
EXTT0=
EXTT1=
EXTT2=
EXTT3=
EXTT4=
EXTT5=
EXTT6=
EXTT7=
EXTT8=
EXTT9=
PLAYORDER=
